<svg xmlns="http://www.w3.org/2000/svg" width="44" height="25" viewBox="0 0 44 25" fill="none">
    <path
        d="M3.09289 23.6754H0.181641V7.78353H2.96631V10.3781H3.09289C3.38823 9.53488 3.98946 8.82136 4.8966 8.23758C5.82481 7.63217 6.73195 7.32947 7.61798 7.32947C8.46183 7.32947 9.17908 7.4592 9.76978 7.71866L8.88374 10.6051C8.52512 10.4538 7.95553 10.3781 7.17497 10.3781C6.07797 10.3781 5.11811 10.8322 4.29536 11.7403C3.49372 12.6484 3.09289 13.7079 3.09289 14.9187V23.6754ZM8.90748 18.8106C8.90748 19.5889 9.22392 20.2376 9.8568 20.7565C10.5108 21.2754 11.2702 21.5349 12.1352 21.5349C13.3587 21.5349 14.4452 21.07 15.3945 20.1403C16.3649 19.2105 16.8501 18.1187 16.8501 16.8646C15.943 16.1295 14.6772 15.7619 13.0528 15.7619C11.8715 15.7619 10.8799 16.0538 10.0783 16.6376C9.29774 17.2214 8.90748 17.9457 8.90748 18.8106ZM12.6731 7.26461C14.8249 7.26461 16.5231 7.85919 17.7678 9.04839C19.0125 10.216 19.6348 11.8268 19.6348 13.8808V23.6754H16.8501V21.47H16.7235C15.5211 23.2862 13.9178 24.1943 11.9137 24.1943C10.2049 24.1943 8.77036 23.6754 7.61007 22.6376C6.47089 21.5997 5.9013 20.3024 5.9013 18.7457C5.9013 17.1024 6.50253 15.7943 7.705 14.8214C8.92858 13.8484 10.553 13.3619 12.5782 13.3619C14.3081 13.3619 15.732 13.6862 16.8501 14.3349V13.6538C16.8501 12.616 16.4493 11.7403 15.6477 11.0268C14.846 10.2916 13.9072 9.92407 12.8313 9.92407C11.207 9.92407 9.92008 10.6268 8.97077 12.0322L6.4076 10.3781C7.82104 8.30245 9.90954 7.26461 12.6731 7.26461ZM25.798 0.194336C26.8527 0.194336 27.7178 0.378119 28.3928 0.745688L27.6017 3.37272C27.0954 3.11326 26.5258 2.98353 25.8929 2.98353C25.1755 2.98353 24.585 3.24299 24.1208 3.7619C23.6778 4.25919 23.4563 4.92947 23.4563 5.77272V7.78353H27.5067V10.5079H23.4563V23.6754H20.545V10.5079H17.6338V7.78353H20.545V5.48082C20.545 3.90244 21.0303 2.62677 22.0007 1.6538C22.9922 0.680824 24.258 0.194336 25.798 0.194336ZM24.1893 15.7295C24.1893 13.2862 24.9382 11.2646 26.4359 9.66461C27.9549 8.06462 29.8642 7.26461 32.1635 7.26461C34.4631 7.26461 36.3617 8.06462 37.8594 9.66461C39.3783 11.2646 40.1378 13.2862 40.1378 15.7295C40.1378 18.1943 39.3783 20.2159 37.8594 21.7943C36.3617 23.3943 34.4631 24.1943 32.1635 24.1943C29.8642 24.1943 27.9549 23.3943 26.4359 21.7943C24.9382 20.1943 24.1893 18.1727 24.1893 15.7295ZM27.1005 15.7295C27.1005 17.4376 27.5858 18.8214 28.5561 19.8808C29.5266 20.9403 30.7291 21.47 32.1635 21.47C33.5982 21.47 34.8007 20.9403 35.7709 19.8808C36.7414 18.8214 37.2266 17.4376 37.2266 15.7295C37.2266 14.043 36.7414 12.67 35.7709 11.6106C34.7795 10.5295 33.577 9.98893 32.1635 9.98893C30.7502 9.98893 29.5478 10.5295 28.5561 11.6106C27.5858 12.67 27.1005 14.043 27.1005 15.7295ZM43.818 21.6646C43.818 22.27 43.607 22.7889 43.1851 23.2214C42.7842 23.6538 42.2779 23.87 41.6662 23.87C41.0754 23.87 40.5691 23.6538 40.1473 23.2214C39.7255 22.7889 39.5144 22.27 39.5144 21.6646C39.5144 21.0376 39.7255 20.5187 40.1473 20.1078C40.5691 19.6754 41.0754 19.4592 41.6662 19.4592C42.2779 19.4592 42.7842 19.6754 43.1851 20.1078C43.607 20.5187 43.818 21.0376 43.818 21.6646Z"
        fill="#F9FAFB" />
</svg>